<svg width="95" height="69" viewBox="0 0 95 69" fill="none" xmlns="http://www.w3.org/2000/svg">
<path d="M94.5669 -25.1543V-2.66286H88.4229C86.1554 -2.66286 84.3269 -1.93143 82.9371 -0.468577C81.6206 0.921132 80.6697 2.78628 80.0846 5.12685C79.5726 7.39428 79.3166 9.808 79.3166 12.368C79.3166 16.7566 78.5851 20.1211 77.1223 22.4617C75.6594 24.8023 73.0994 25.9726 69.4423 25.9726H94.6766V68.5417H55.6183V15.0011C55.6183 7.24799 56.6423 0.372562 58.6903 -5.62515C60.8114 -11.696 64.2126 -16.4503 68.8937 -19.888C73.648 -23.3989 79.9383 -25.1543 87.7646 -25.1543H94.5669ZM39.9291 -25.1543V-2.66286H33.7851C31.5177 -2.66286 29.6891 -1.93143 28.2994 -0.468577C26.9829 0.921132 26.032 2.78628 25.4469 5.12685C24.9349 7.39428 24.6789 9.808 24.6789 12.368C24.6789 16.7566 23.9474 20.1211 22.4846 22.4617C21.0217 24.8023 18.4617 25.9726 14.8046 25.9726H40.0389V68.5417H0.980572V15.0011C0.980572 7.24799 2.00457 0.372562 4.05257 -5.62515C6.17372 -11.696 9.57486 -16.4503 14.256 -19.888C19.0103 -23.3989 25.3006 -25.1543 33.1269 -25.1543H39.9291Z" fill="#434B62"/>
</svg>
